<?xml version="1.0" encoding="UTF-8" standalone="no"?>
<svg
   xmlns:dc="http://purl.org/dc/elements/1.1/"
   xmlns:cc="http://creativecommons.org/ns#"
   xmlns:rdf="http://www.w3.org/1999/02/22-rdf-syntax-ns#"
   xmlns:svg="http://www.w3.org/2000/svg"
   xmlns="http://www.w3.org/2000/svg"
   xmlns:sodipodi="http://sodipodi.sourceforge.net/DTD/sodipodi-0.dtd"
   xmlns:inkscape="http://www.inkscape.org/namespaces/inkscape"
   width="176"
   height="191"
   viewBox="0 0 176 191"
   fill="none"
   version="1.1"
   id="svg59"
   sodipodi:docname="Illustration - copia.svg"
   inkscape:version="0.92.3 (2405546, 2018-03-11)">
  <metadata
     id="metadata63">
    <rdf:RDF>
      <cc:Work
         rdf:about="">
        <dc:format>image/svg+xml</dc:format>
        <dc:type
           rdf:resource="http://purl.org/dc/dcmitype/StillImage" />
      </cc:Work>
    </rdf:RDF>
  </metadata>
  <sodipodi:namedview
     pagecolor="#ffffff"
     bordercolor="#666666"
     borderopacity="1"
     objecttolerance="10"
     gridtolerance="10"
     guidetolerance="10"
     inkscape:pageopacity="0"
     inkscape:pageshadow="2"
     inkscape:window-width="1920"
     inkscape:window-height="1001"
     id="namedview61"
     showgrid="false"
     inkscape:zoom="2.4712042"
     inkscape:cx="102.93315"
     inkscape:cy="93.522424"
     inkscape:window-x="-9"
     inkscape:window-y="-9"
     inkscape:window-maximized="1"
     inkscape:current-layer="svg59" />
  <g
     clip-path="url(#clip0)"
     id="g52">
    <g
       id="g947"
       transform="translate(-28.54,-0.13682)">
      <path
         style="fill:#000000"
         inkscape:connector-curvature="0"
         id="path2"
         d="m 94.3673,20.0594 c 6.1087,16.3329 26.0997,13.875 39.6647,10.3864 3.252,-0.8721 6.584,-1.8236 9.519,-3.4886 2.936,-1.665 5.395,-4.3607 6.347,-7.6114 1.031,-3.6472 -0.159,-7.6908 -2.221,-10.8622 -1.904,-2.93358 -4.681,-6.02574 -7.616,-7.928601 -1.269,3.250731 -5.791,3.488581 -8.885,3.488581 -4.363,0 -8.33,-1.665 -12.375,-2.85429 C 114.676,-3.39746e-6 110.233,-0.237861 106.108,0.872143 97.7785,2.85429 91.1148,11.3379 94.3673,20.0594 Z" />
      <path
         style="fill:#000000"
         inkscape:connector-curvature="0"
         id="path4"
         d="m 106.822,129.395 c -0.238,0 -0.317,0 -0.476,0.079 z" />
      <path
         style="fill:#000000"
         inkscape:connector-curvature="0"
         id="path6"
         d="m 106.822,129.395 c -0.238,0 -0.317,0 -0.476,0.079 z" />
      <path
         style="stroke:#000000;stroke-width:2;stroke-miterlimit:10"
         inkscape:connector-curvature="0"
         id="path8"
         stroke-miterlimit="10"
         d="M 89.2109,49.8709 V 34.5687 c 0,-13.0029 12.1371,-23.6272 26.9721,-23.6272 7.377,0 14.12,2.6164 19.039,6.8978 4.918,4.2815 7.933,10.1487 7.933,16.6501 v 15.3022" />
      <path
         style="stroke:#000000;stroke-width:2;stroke-miterlimit:10"
         inkscape:connector-curvature="0"
         id="path10"
         stroke-miterlimit="10"
         d="m 143.155,66.4417 v 17.6807 c 0,13.0029 -12.138,23.6276 -26.972,23.6276 -14.835,0 -26.9721,-10.6247 -26.9721,-23.6276 V 66.4417" />
      <path
         style="stroke:#000000;stroke-width:2;stroke-miterlimit:10"
         inkscape:connector-curvature="0"
         id="path12"
         stroke-miterlimit="10"
         d="m 100.158,71.9124 c 7.58,0 13.724,-6.1411 13.724,-13.7165 0,-7.5754 -6.144,-13.7165 -13.724,-13.7165 -7.5791,0 -13.7236,6.1411 -13.7236,13.7165 0,7.5754 6.1445,13.7165 13.7236,13.7165 z" />
      <path
         style="stroke:#000000;stroke-width:2;stroke-miterlimit:10"
         inkscape:connector-curvature="0"
         id="path14"
         stroke-miterlimit="10"
         d="m 132.128,71.9124 c 7.58,0 13.724,-6.1411 13.724,-13.7165 0,-7.5754 -6.144,-13.7165 -13.724,-13.7165 -7.58,0 -13.724,6.1411 -13.724,13.7165 0,7.5754 6.144,13.7165 13.724,13.7165 z" />
      <path
         style="stroke:#000000;stroke-width:4;stroke-miterlimit:10"
         inkscape:connector-curvature="0"
         id="path16"
         stroke-miterlimit="10"
         d="m 113.803,57.7995 h 4.76" />
      <path
         style="stroke:#000000;stroke-width:2;stroke-miterlimit:10"
         inkscape:connector-curvature="0"
         id="path18"
         stroke-miterlimit="10"
         d="m 127.21,105.609 h 0.079 v 24.816" />
      <path
         style="stroke:#000000;stroke-width:2;stroke-miterlimit:10"
         inkscape:connector-curvature="0"
         id="path20"
         stroke-miterlimit="10"
         d="M 107.457,130.108 V 106.243" />
      <path
         style="fill:#000000"
         inkscape:connector-curvature="0"
         id="path22"
         d="m 100.158,61.3674 c 1.753,0 3.174,-1.4199 3.174,-3.1715 0,-1.7515 -1.421,-3.1714 -3.174,-3.1714 -1.7521,0 -3.1728,1.4199 -3.1728,3.1714 0,1.7516 1.4207,3.1715 3.1728,3.1715 z" />
      <path
         style="fill:#000000"
         inkscape:connector-curvature="0"
         id="path24"
         d="m 132.128,61.3674 c 1.753,0 3.173,-1.4199 3.173,-3.1715 0,-1.7515 -1.42,-3.1714 -3.173,-3.1714 -1.752,0 -3.173,1.4199 -3.173,3.1714 0,1.7516 1.421,3.1715 3.173,3.1715 z" />
      <path
         style="stroke:#000000;stroke-width:2;stroke-miterlimit:10"
         inkscape:connector-curvature="0"
         id="path26"
         stroke-miterlimit="10"
         d="m 87.3864,63.3495 h -1.5866 c -1.7452,0 -3.3318,0.7136 -4.5217,1.8236 -1.1107,1.1893 -1.8246,2.775 -1.8246,4.5193 0,3.4886 2.8558,6.3429 6.3463,6.3429 h 3.1732" />
      <path
         style="stroke:#000000;stroke-width:2;stroke-miterlimit:10"
         inkscape:connector-curvature="0"
         id="path28"
         stroke-miterlimit="10"
         d="m 144.9,63.3495 h 1.587 c 3.49,0 6.346,2.8543 6.346,6.3429 0,1.7443 -0.714,3.33 -1.904,4.5193 -1.111,1.11 -2.697,1.8236 -4.442,1.8236 h -3.174" />
      <path
         style="fill:#000000"
         inkscape:connector-curvature="0"
         id="path30"
         d="m 89.0523,67.7896 v 3.8057 h -2.5385 c -1.0313,0 -1.9039,-0.8722 -1.9039,-1.9029 0,-0.555 0.2379,-1.0307 0.5553,-1.3478 0.3173,-0.3172 0.7933,-0.555 1.3486,-0.555 z" />
      <path
         style="fill:#000000"
         inkscape:connector-curvature="0"
         id="path32"
         d="m 143.313,71.5953 v -3.8057 h 2.539 c 1.031,0 1.904,0.8721 1.904,1.9028 0,0.555 -0.238,1.0307 -0.555,1.3479 -0.318,0.3171 -0.794,0.555 -1.349,0.555 z" />
      <path
         style="stroke:#000000;stroke-width:2;stroke-linecap:round;stroke-miterlimit:10"
         inkscape:connector-curvature="0"
         id="path34"
         stroke-miterlimit="10"
         d="m 116.183,71.2781 c 0,0 -3.967,6.3429 2.38,4.7572" />
      <path
         style="stroke:#000000;stroke-width:2;stroke-linecap:round;stroke-miterlimit:10"
         inkscape:connector-curvature="0"
         id="path36"
         stroke-miterlimit="10"
         d="m 109.043,89.5932 c 0,0 6.347,7.8493 15.073,0" />
      <path
         style="stroke:#000000;stroke-width:3;stroke-linecap:round;stroke-miterlimit:10"
         inkscape:connector-curvature="0"
         id="path38"
         stroke-miterlimit="10"
         d="m 93.9707,41.9423 c 0,0 4.3631,-4.3608 11.8993,-0.7929" />
      <path
         style="stroke:#000000;stroke-width:3;stroke-linecap:round;stroke-miterlimit:10"
         inkscape:connector-curvature="0"
         id="path40"
         stroke-miterlimit="10"
         d="m 138.395,41.9423 c 0,0 -4.363,-4.3608 -11.899,-0.7929" />
      <path
         style="fill:#000000"
         inkscape:connector-curvature="0"
         id="path42"
         d="m 89.0522,32.9037 c 0,0 -10.9474,-8.4836 -6.1876,-18.7908 4.7597,-10.30715 19.8324,-4.75713 19.8324,-4.75713 0,0 6.029,25.68863 -13.6448,23.54793 z" />
      <path
         style="fill:#000000"
         inkscape:connector-curvature="0"
         id="path50"
         d="m 57.638,185.846 -0.238,0.159 c 0.0794,0 0.1587,-0.079 0.238,-0.159 z" />
      <path
         sodipodi:nodetypes="sccccccccssccccsccscccsccs"
         d="m 59.144999,190.34382 v 0.793 h 17.294 l 3.649,-20.218 v 20.218 H 154.9749 l -0.2379,-20.45599 3.66165,20.47091 17.26238,-0.0126 c 0,0 -1.24986,-19.62913 -4.72347,-28.54134 -2.92369,-7.5013 -7.25692,-14.78718 -13.18099,-20.23906 -6.05769,-5.57486 -21.74137,-11.71687 -21.74137,-11.71687 -1.1106,-0.238 -2.3002,-0.476 -3.5702,-0.635 -1.19,-0.158 -2.379,-0.317 -3.728,-0.396 l -2.221,-0.079 v 3.013 c 0,0.396 -0.159,0.872 -0.556,1.268 -1.19,1.348 -3.887,2.379 -7.139,2.617 -0.555,0.079 -1.111,0.079 -1.666,0.079 h -0.159 -0.079 c -3.173,-0.079 -6.108,-0.951 -7.616,-2.22 -0.476,-0.396 -0.952,-0.951 -0.952,-1.744 v -2.775 l -2.617,0.158 c -29.114001,3.568 -46.567001,26.16499 -46.567001,60.41599 z"
         id="path922"
         inkscape:connector-curvature="0"
         style="fill:#000000" />
    </g>
  </g>
  <defs
     id="defs57">
    <clipPath
       id="clip0">
      <rect
         width="175"
         height="191"
         fill="white"
         transform="translate(0.679688)"
         id="rect54" />
    </clipPath>
  </defs>
</svg>
